ply
format ascii 1.0
comment VTK generated PLY File
obj_info vtkPolyData points and polygons: vtk4.0
element vertex 521
property float x
property float y
property float z
element face 640
property list uchar int vertex_indices
end_header
128.854979   75.575082 -200.310008
128.854979   75.575082 -200.310008
117.990210   84.716476 -192.536303
113.665025   91.556619 -186.370845
112.552800   99.370440 -181.408754
111.326909  111.432870 -177.245148
135.863566   74.812235 -190.656439
127.394157   85.666447 -182.208197
125.723789   93.517987 -172.186633
124.639391  102.256137 -163.041055
117.927894  115.770176 -157.220768
144.784177   73.946212 -181.189998
135.219336   87.717302 -170.259801
131.962173   97.356195 -156.990623
128.880453  107.167663 -145.248111
119.841938  121.456480 -138.897913
153.205669   74.869269 -166.177588
141.147173   91.015881 -153.645424
134.236948  102.432012 -139.947512
128.486293  113.003240 -128.537178
119.906504  126.615145 -122.867745
158.716899   79.473664 -139.886113
144.859090   95.709021 -129.319373
134.404881  108.106209 -120.221999
126.667219  118.661092 -113.415511
120.959054  129.369535 -109.721428
111.326909  111.432870 -177.245148
109.921111  123.264895 -175.383249
110.820629  130.929252 -175.246260
114.526031  138.513497 -173.309280
121.537889  150.105185 -166.047403
117.927894  115.770176 -157.220768
109.150813  128.574014 -156.151394
106.127289  135.662928 -157.132348
109.030691  141.648245 -156.423629
118.034387  151.141295 -150.285238
119.841938  121.456480 -138.897913
109.211452  134.421642 -137.478183
105.758805  140.729514 -136.698113
109.959244  145.385921 -134.679902
122.288015  153.396691 -129.545750
119.906504  126.615145 -122.867745
112.117178  138.497437 -120.570276
111.282111  144.310679 -117.178990
117.228897  148.586726 -113.001945
129.785129  155.857434 -108.347197
120.959054  129.369535 -109.721428
119.882141  138.491060 -106.634332
124.264142  144.588094 -101.810413
130.756857  150.110859  -96.313603
136.012089  157.509580  -91.207838
121.537889  150.105185 -166.047403
128.607046  164.866059 -152.526286
132.381429  178.865654 -136.438272
133.207224  191.553214 -121.198493
131.430619  202.377985 -110.222078
118.034387  151.141295 -150.285238
127.550556  164.318471 -138.170724
132.420801  177.652483 -123.889059
133.462630  190.199129 -110.233378
131.493549  201.014208  -99.996815
122.288015  153.396691 -129.545750
133.408099  165.493904 -120.767746
136.104600  178.222226 -110.345532
134.035946  190.306359 -100.192638
130.860567  200.471008  -92.222592
129.785129  155.857434 -108.347197
139.150145  167.143990 -102.592249
138.979032  179.377429  -95.708285
134.283012  190.954372  -88.893886
130.073308  200.271444  -83.347636
136.012089  157.509580  -91.207838
137.747163  168.020361  -85.919131
136.590306  179.920637  -79.877912
133.559669  191.222634  -74.154741
129.673404  199.938575  -69.820174
131.430619  202.377985 -110.222078
125.429939  211.923807 -104.102072
115.138243  220.406467 -100.718123
103.233825  226.723127  -99.415271
92.394976  229.770950  -99.538559
131.493549  201.014208  -99.996815
125.721062  210.271798  -93.694839
116.174118  218.248655  -89.742275
104.902391  224.154600  -87.781288
93.955555  227.199456  -87.454044
130.860567  200.471008  -92.222592
125.741535  209.179876  -86.675266
116.761077  216.960254  -82.581615
105.956355  222.632224  -80.041796
95.364530  225.015869  -79.155967
130.073308  200.271444  -83.347636
125.257151  208.296800  -79.235880
116.711074  215.921693  -76.017228
106.400247  221.427393  -73.828657
96.289840  223.095170  -72.807147
129.673404  199.938575  -69.820174
124.033703  207.271326  -67.569210
115.836065  214.513402  -66.830199
106.238602  219.811506  -66.773734
96.399426  221.312340  -66.570405
128.854979   75.575082 -200.310008
105.226193   74.160549 -194.134531
83.273064   77.855284 -185.616694
64.425023   85.619063 -176.560990
50.111502   96.411660 -168.771908
135.863566   74.812235 -190.656439
110.977138   74.112643 -181.025063
87.785870   78.647143 -170.069825
67.815472   87.333311 -159.506731
52.591655   99.088724 -151.051785
144.784177   73.946212 -181.189998
119.492500   74.647861 -168.295587
95.042077   79.669066 -153.719969
73.532606   88.946367 -139.921882
57.063783  102.416300 -129.360061
153.205669   74.869269 -166.177588
128.307550   77.050453 -151.486960
103.028120   82.250023 -135.107775
80.269211   91.599780 -119.615048
 62.932653  106.231524 -107.583792
158.716899   79.473664 -139.886113
134.957560   82.604673 -126.140036
109.730435   87.718981 -112.773890
86.718075   96.435097 -100.394835
69.603032  110.371530  -89.610033
50.111502   96.411660 -168.771908
38.747413  112.777805 -163.979302
29.739392  134.984506 -160.984913
26.004456  158.574955 -157.201068
30.459622  179.092345 -150.040093
52.591655   99.088724 -151.051785
40.930450  115.484729 -145.027208
32.158374  136.439585 -139.801974
28.566871  158.391237 -134.162219
32.447382  177.777634 -126.894076
57.063783  102.416300 -129.360061
45.040559  119.767813 -122.123227
36.355606  139.227397 -116.211041
32.340203  158.537907 -110.948658
34.325631  175.442199 -105.661229
62.932653  106.231524 -107.583792
51.014860  124.282200  -99.428647
42.758998  142.319038  -93.516331
38.437034  159.119261  -89.349977
38.320932  173.460097  -86.432716
69.603032  110.371530  -89.610033
58.790468  127.683034  -81.104758
51.796462  144.685602  -75.022062
47.969945  160.239597  -71.155768
46.659848  173.205385  -69.299698
30.459622  179.092345 -150.040093
37.191078  192.159379 -141.809632
40.180087  198.984330 -135.627447
42.186279  203.488748 -130.121048
45.969284  209.594185 -123.917943
32.447382  177.777634 -126.894076
38.657041  190.729473 -120.284605
41.958714  197.959786 -116.134617
44.502443  202.780014 -112.500865
48.438270  208.501603 -107.440106
34.325631  175.442199 -105.661229
38.912511  187.519605 -101.644286
42.469018  195.370923  -99.540435
45.977762  201.271200  -97.695438
50.421357  207.495486  -94.455062
38.320932  173.460097  -86.432716
40.924083  184.444661  -84.961216
44.452282  192.793880  -84.685531
48.716098  199.711694  -84.438876
53.526105  206.402044  -83.054467
46.659848  173.205385  -69.299698
47.658353  183.419526  -69.307934
50.649791  191.804796  -70.410534
54.821314  198.850886  -71.465285
59.360075  205.047485  -71.329971
45.969284  209.594185 -123.917943
54.603403  217.562777 -116.282009
67.271123  224.312030 -108.532792
80.894346  228.746552 -102.381304
92.394976  229.770950  -99.538559
48.438270  208.501603 -107.440106
56.717440  215.775508 -100.832234
68.960610  222.180754  -94.575619
82.321931  226.420888  -89.754733
93.955555  227.199456  -87.454044
50.421357  207.495486  -94.455062
58.505492  214.333367  -89.583786
70.485759  220.045227  -84.679544
83.669619  223.862313  -80.838288
95.364530  225.015869  -79.155967
53.526105  206.402044  -83.054467
61.155719  212.799470  -80.078341
72.415427  217.875012  -76.606403
84.921408  221.387351  -73.796666
96.289840  223.095170  -72.807147
59.360075  205.047485  -71.329971
65.856280  210.736935  -69.857574
75.318469  215.639672  -68.118031
86.061298  219.312529  -66.794567
96.399426  221.312340  -66.570405
158.716899   79.473664 -139.886113
144.859090   95.709021 -129.319373
134.404881  108.106209 -120.221999
126.667219  118.661092 -113.415511
120.959054  129.369535 -109.721428
154.753649   90.410355 -110.064012
138.949880  107.232067 -101.985192
127.062164  120.638301  -98.822793
122.321203  130.548542  -96.569233
141.576390  106.075513  -87.651727
127.803898  121.168853  -82.836107
121.926117  131.942011  -82.119143
127.011011  121.979210  -71.704165
120.528586  133.114738  -69.358897
118.883399  133.631520  -61.276235
120.959054  129.369535 -109.721428
119.882141  138.491060 -106.634332
124.264142  144.588094 -101.810413
130.756857  150.110859  -96.313603
136.012089  157.509580  -91.207838
122.321203  130.548542  -96.569233
126.853845  137.620579  -91.833771
135.456533  144.978477  -85.751330
142.023937  152.676222  -79.490229
140.450727  160.767799  -74.218789
121.926117  131.942011  -82.119143
127.423939  139.425744  -74.608716
136.320543  148.593279  -66.053973
143.024923  158.224897  -58.554752
141.946077  167.100881  -54.210889
120.528586  133.114738  -69.358897
123.672798  142.078734  -59.580884
129.487540  153.156260  -48.793699
134.447982  164.453357  -40.152383
135.029294  174.076064  -36.811975
118.883399  133.631520  -61.276235
117.680792  143.751726  -51.371991
117.588891  156.391182  -40.045866
116.981278  169.058075  -30.928337
114.231534  179.260590  -27.649883
136.012089  157.509580  -91.207838
137.747163  168.020361  -85.919131
136.590306  179.920637  -79.877912
133.559669  191.222634  -74.154741
129.673404  199.938575  -69.820174
140.450727  160.767799  -74.218789
135.241184  170.395072  -68.983944
133.179031  181.434191  -62.999570
131.578107  192.040575  -57.684402
127.752249  200.369644  -54.457174
141.946077  167.100881  -54.210889
136.083281  175.792438  -51.159830
131.507335  185.093699  -47.221798
127.234524  194.119327  -44.020801
122.281131  201.983986  -43.180845
135.029294  174.076064  -36.811975
130.857493  181.842475  -36.428066
124.903706  189.091612  -35.450267
118.660770  196.210909  -35.224649
113.621524  203.587799  -37.097281
114.231534  179.260590  -27.649883
110.147860  186.175198  -28.769927
106.696634  191.620380  -30.590649
103.988698  197.067341  -33.356659
102.134899  203.987285  -37.312571
129.673404  199.938575  -69.820174
124.033703  207.271326  -67.569210
115.836065  214.513402  -66.830199
106.238602  219.811506  -66.773734
96.399426  221.312340  -66.570405
127.752249  200.369644  -54.457174
119.109815  208.758107  -54.393420
108.349778  216.260862  -57.372704
96.804967  219.145325  -59.046327
122.281131  201.983986  -43.180845
110.911511  211.009459  -46.459788
98.367788  215.845447  -50.861139
113.621524  203.587799  -37.097281
100.380297  210.947752  -43.216127
102.134899  203.987285  -37.312571
158.716899   79.473664 -139.886113
134.957560   82.604673 -126.140036
109.730435   87.718981 -112.773890
86.718075   96.435097 -100.394835
69.603032  110.371530  -89.610033
154.753649   90.410355 -110.064012
128.609659   94.799200  -96.152136
101.328408  102.569339  -85.619659
80.884480  116.403667  -75.980674
141.576390  106.075513  -87.651727
118.123506  111.855599  -74.083472
96.920867  124.147451  -65.680745
127.011011  121.979210  -71.704165
111.618429  130.818272  -60.262011
118.883399  133.631520  -61.276235
69.603032  110.371530  -89.610033
58.790468  127.683034  -81.104758
51.796462  144.685602  -75.022062
47.969945  160.239597  -71.155768
46.659848  173.205385  -69.299698
80.884480  116.403667  -75.980674
71.695946  131.527203  -67.242020
64.955578  147.758157  -60.230240
60.459782  163.061918  -55.390281
58.004962  175.403877  -53.167092
96.920867  124.147451  -65.680745
89.457302  136.877436  -56.411174
81.873004  152.193490  -47.955163
75.405308  167.076069  -41.657627
71.291548  178.505628  -38.863481
111.618429  130.818272  -60.262011
106.607822  141.647641  -50.493928
100.200266  155.801274  -40.469487
93.885986  169.876603  -32.617186
89.155205  180.471059  -29.365525
118.883399  133.631520  -61.276235
117.680792  143.751726  -51.371991
117.588891  156.391182  -40.045866
116.981278  169.058075  -30.928337
114.231534  179.260590  -27.649883
46.659848  173.205385  -69.299698
47.658353  183.419526  -69.307934
50.649791  191.804796  -70.410534
54.821314  198.850886  -71.465285
59.360075  205.047485  -71.329971
58.004962  175.403877  -53.167092
58.093347  184.582162  -53.741209
60.575610  192.071228  -56.006538
64.270829  198.350963  -58.478077
67.998078  203.901251  -59.670827
71.291548  178.505628  -38.863481
70.607978  186.111460  -39.866040
72.570819  192.169638  -43.053052
75.627359  197.630793  -46.911083
78.224883  203.445556  -49.926698
89.155205  180.471059  -29.365525
87.270173  186.983709  -30.577317
87.617225  192.039522  -33.823336
88.872713  197.074783  -38.094033
89.712990  203.525776  -42.379855
114.231534  179.260590  -27.649883
110.147860  186.175198  -28.769927
106.696634  191.620380  -30.590649
103.988698  197.067341  -33.356659
102.134899  203.987285  -37.312571
59.360075  205.047485  -71.329971
65.856280  210.736935  -69.857574
75.318469  215.639672  -68.118031
86.061298  219.312529  -66.794567
96.399426  221.312340  -66.570405
67.998078  203.901251  -59.670827
75.226932  210.266276  -59.051312
85.824150  216.156644  -58.716568
96.804967  219.145325  -59.046327
78.224883  203.445556  -49.926698
87.234023  211.034182  -50.210495
98.367788  215.845447  -50.861139
89.712990  203.525776  -42.379855
100.380297  210.947752  -43.216127
102.134899  203.987285  -37.312571
128.854979   75.575082 -200.310008
117.990210   84.716476 -192.536303
114.597603   81.154241 -191.941474
113.665025   91.556619 -186.370845
105.779771   88.461856 -184.375170
100.023344   85.750618 -183.360687
112.552800   99.370440 -181.408754
102.418065   96.702070 -178.534071
95.870836   94.826686 -176.036825
88.116683   92.408461 -174.970465
111.326909  111.432870 -177.245148
102.253805  108.939448 -173.961085
95.572474  107.447625 -170.964219
89.402158  106.133213 -168.589938
81.862098  104.172020 -167.173628
111.326909  111.432870 -177.245148
109.921111  123.264895 -175.383249
110.820629  130.929252 -175.246260
114.526031  138.513497 -173.309280
121.537889  150.105185 -166.047403
102.253805  108.939448 -173.961085
101.613801  121.218075 -171.509225
102.680563  130.815837 -171.007473
105.556789  140.396285 -168.980744
110.345175  152.622970 -161.953955
95.572474  107.447625 -170.964219
94.430320  120.762426 -167.758416
94.598828  131.987663 -167.016991
96.386202  142.646468 -165.284660
100.100642  154.261970 -159.106140
89.402158  106.133213 -168.589938
87.506858  120.617878 -164.595686
86.727129  133.486859 -163.569632
87.554318  145.201877 -162.099873
90.479777  156.224652 -156.774504
81.862098  104.172020 -167.173628
79.979605  119.504362 -162.485895
79.217167  134.355553 -160.960210
79.601185  148.000345 -159.305225
81.158063  159.713485 -154.229593
128.854979   75.575082 -200.310008
105.226193   74.160549 -194.134531
114.597603   81.154241 -191.941474
83.273064   77.855284 -185.616694
91.951566   82.268434 -184.039971
100.023344   85.750618 -183.360687
64.425023   85.619063 -176.560990
73.332365   88.272522 -175.965203
79.675516   90.619862 -174.870228
88.116683   92.408461 -174.970465
50.111502   96.411660 -168.771908
58.762853   99.062030 -168.302377
66.316468  100.716793 -167.502214
73.705249  102.159079 -166.937329
81.862098  104.172020 -167.173628
50.111502   96.411660 -168.771908
38.747413  112.777805 -163.979302
29.739392  134.984506 -160.984913
26.004456  158.574955 -157.201068
30.459622  179.092345 -150.040093
58.762853   99.062030 -168.302377
48.818269  114.897832 -163.274054
41.336926  134.828110 -160.155961
38.800684  155.585717 -156.400165
43.691405  173.903506 -149.458730
66.316468  100.716793 -167.502214
60.022643  116.403321 -162.382943
55.613590  134.682978 -159.586473
54.335744  153.058602 -156.390146
57.435540  169.033033 -150.071301
73.705249  102.159079 -166.937329
70.897450  117.777692 -161.916660
69.322599  134.531372 -159.710029
69.104343  150.646011 -157.311627
70.366327  164.347501 -151.715643
81.862098  104.172020 -167.173628
79.979605  119.504362 -162.485895
79.217167  134.355553 -160.960210
79.601185  148.000345 -159.305225
81.158063  159.713485 -154.229593
121.537889  150.105185 -166.047403
128.607046  164.866059 -152.526286
132.381429  178.865654 -136.438272
133.207224  191.553214 -121.198493
131.430619  202.377985 -110.222078
110.345175  152.622970 -161.953955
115.570624  166.964763 -149.583389
119.298703  180.607714 -135.532099
120.943106  192.791145 -122.335158
119.917523  202.754378 -112.527638
100.100642  154.261970 -159.106140
104.163753  167.240289 -147.921153
106.830242  180.154846 -135.194874
108.157971  191.779716 -123.510198
108.204801  200.888978 -115.450024
90.479777  156.224652 -156.774504
93.453383  167.814956 -146.651268
94.789596  179.872152 -134.950696
95.526631  190.817350 -124.505068
96.702707  199.071660 -118.146666
81.158063  159.713485 -154.229593
82.506466  170.811079 -144.885425
82.990316  182.124737 -134.323666
83.723895  192.202473 -125.101221
85.821489  199.592300 -119.774993
131.430619  202.377985 -110.222078
119.917523  202.754378 -112.527638
108.204801  200.888978 -115.450024
96.702707  199.071660 -118.146666
85.821489  199.592300 -119.774993
125.429939  211.923807 -104.102072
112.308287  210.946661 -107.549498
100.087444  207.791264 -112.535472
88.535421  207.204818 -115.462026
115.138243  220.406467 -100.718123
101.848214  218.401169 -105.177736
90.455401  216.845357 -109.113195
103.233825  226.723127  -99.415271
91.701798  225.404031 -103.036154
92.394976  229.770950  -99.538559
30.459622  179.092345 -150.040093
37.191078  192.159379 -141.809632
40.180087  198.984330 -135.627447
42.186279  203.488748 -130.121048
45.969284  209.594185 -123.917943
43.691405  173.903506 -149.458730
49.942367  186.523701 -141.158493
51.960926  194.274807 -134.466644
52.940055  200.019099 -128.545783
56.072726  206.618850 -122.558510
57.435540  169.033033 -150.071301
61.141577  181.085672 -141.556475
62.316513  190.158812 -133.770530
63.157875  197.449626 -126.988294
65.863186  204.155288 -121.484597
70.366327  164.347501 -151.715643
71.694384  175.847422 -142.849984
72.306444  186.240678 -133.676929
73.274301  195.078146 -125.742225
75.669746  201.910704 -120.591620
81.158063  159.713485 -154.229593
82.506466  170.811079 -144.885425
82.990316  182.124737 -134.323666
83.723895  192.202473 -125.101221
85.821489  199.592300 -119.774993
45.969284  209.594185 -123.917943
56.072726  206.618850 -122.558510
65.863186  204.155288 -121.484597
75.669746  201.910704 -120.591620
85.821489  199.592300 -119.774993
54.603403  217.562777 -116.282009
66.166650  213.817815 -115.512067
77.152780  210.098345 -115.719335
88.535421  207.204818 -115.462026
67.271123  224.312030 -108.532792
79.191884  220.143323 -108.692750
90.455401  216.845357 -109.113195
80.894346  228.746552 -102.381304
91.701798  225.404031 -103.036154
92.394976  229.770950  -99.538559
3    7    6    1
3    7    2    1
3    8    7    2
3    8    3    2
3    9    8    3
3    9    4    3
3   10    9    4
3   10    5    4
3   12   11    6
3   12    7    6
3   13   12    7
3   13    8    7
3   14   13    8
3   14    9    8
3   15   14    9
3   15   10    9
3   17   16   11
3   17   12   11
3   18   17   12
3   18   13   12
3   19   18   13
3   19   14   13
3   20   19   14
3   20   15   14
3   22   21   16
3   22   17   16
3   23   22   17
3   23   18   17
3   24   23   18
3   24   19   18
3   25   24   19
3   25   20   19
3   32   31   26
3   32   27   26
3   33   32   27
3   33   28   27
3   34   33   28
3   34   29   28
3   35   34   29
3   35   30   29
3   37   36   31
3   37   32   31
3   38   37   32
3   38   33   32
3   39   38   33
3   39   34   33
3   40   39   34
3   40   35   34
3   42   41   36
3   42   37   36
3   43   42   37
3   43   38   37
3   44   43   38
3   44   39   38
3   45   44   39
3   45   40   39
3   47   46   41
3   47   42   41
3   48   47   42
3   48   43   42
3   49   48   43
3   49   44   43
3   50   49   44
3   50   45   44
3   57   56   51
3   57   52   51
3   58   57   52
3   58   53   52
3   59   58   53
3   59   54   53
3   60   59   54
3   60   55   54
3   62   61   56
3   62   57   56
3   63   62   57
3   63   58   57
3   64   63   58
3   64   59   58
3   65   64   59
3   65   60   59
3   67   66   61
3   67   62   61
3   68   67   62
3   68   63   62
3   69   68   63
3   69   64   63
3   70   69   64
3   70   65   64
3   72   71   66
3   72   67   66
3   73   72   67
3   73   68   67
3   74   73   68
3   74   69   68
3   75   74   69
3   75   70   69
3   82   81   76
3   82   77   76
3   83   82   77
3   83   78   77
3   84   83   78
3   84   79   78
3   85   84   79
3   85   80   79
3   87   86   81
3   87   82   81
3   88   87   82
3   88   83   82
3   89   88   83
3   89   84   83
3   90   89   84
3   90   85   84
3   92   91   86
3   92   87   86
3   93   92   87
3   93   88   87
3   94   93   88
3   94   89   88
3   95   94   89
3   95   90   89
3   97   96   91
3   97   92   91
3   98   97   92
3   98   93   92
3   99   98   93
3   99   94   93
3  100   99   94
3  100   95   94
3  107  106  101
3  107  102  101
3  108  107  102
3  108  103  102
3  109  108  103
3  109  104  103
3  110  109  104
3  110  105  104
3  112  111  106
3  112  107  106
3  113  112  107
3  113  108  107
3  114  113  108
3  114  109  108
3  115  114  109
3  115  110  109
3  117  116  111
3  117  112  111
3  118  117  112
3  118  113  112
3  119  118  113
3  119  114  113
3  120  119  114
3  120  115  114
3  122  121  116
3  122  117  116
3  123  122  117
3  123  118  117
3  124  123  118
3  124  119  118
3  125  124  119
3  125  120  119
3  132  131  126
3  132  127  126
3  133  132  127
3  133  128  127
3  134  133  128
3  134  129  128
3  135  134  129
3  135  130  129
3  137  136  131
3  137  132  131
3  138  137  132
3  138  133  132
3  139  138  133
3  139  134  133
3  140  139  134
3  140  135  134
3  142  141  136
3  142  137  136
3  143  142  137
3  143  138  137
3  144  143  138
3  144  139  138
3  145  144  139
3  145  140  139
3  147  146  141
3  147  142  141
3  148  147  142
3  148  143  142
3  149  148  143
3  149  144  143
3  150  149  144
3  150  145  144
3  157  156  151
3  157  152  151
3  158  157  152
3  158  153  152
3  159  158  153
3  159  154  153
3  160  159  154
3  160  155  154
3  162  161  156
3  162  157  156
3  163  162  157
3  163  158  157
3  164  163  158
3  164  159  158
3  165  164  159
3  165  160  159
3  167  166  161
3  167  162  161
3  168  167  162
3  168  163  162
3  169  168  163
3  169  164  163
3  170  169  164
3  170  165  164
3  172  171  166
3  172  167  166
3  173  172  167
3  173  168  167
3  174  173  168
3  174  169  168
3  175  174  169
3  175  170  169
3  182  181  176
3  182  177  176
3  183  182  177
3  183  178  177
3  184  183  178
3  184  179  178
3  185  184  179
3  185  180  179
3  187  186  181
3  187  182  181
3  188  187  182
3  188  183  182
3  189  188  183
3  189  184  183
3  190  189  184
3  190  185  184
3  192  191  186
3  192  187  186
3  193  192  187
3  193  188  187
3  194  193  188
3  194  189  188
3  195  194  189
3  195  190  189
3  197  196  191
3  197  192  191
3  198  197  192
3  198  193  192
3  199  198  193
3  199  194  193
3  200  199  194
3  200  195  194
3  207  206  201
3  207  202  201
3  208  207  202
3  208  203  202
3  209  208  203
3  209  204  203
3  209  205  204
3  211  210  206
3  211  207  206
3  212  211  207
3  212  208  207
3  212  209  208
3  214  213  210
3  214  211  210
3  214  212  211
3  215  214  213
3  222  221  216
3  222  217  216
3  223  222  217
3  223  218  217
3  224  223  218
3  224  219  218
3  225  224  219
3  225  220  219
3  227  226  221
3  227  222  221
3  228  227  222
3  228  223  222
3  229  228  223
3  229  224  223
3  230  229  224
3  230  225  224
3  232  231  226
3  232  227  226
3  233  232  227
3  233  228  227
3  234  233  228
3  234  229  228
3  235  234  229
3  235  230  229
3  237  236  231
3  237  232  231
3  238  237  232
3  238  233  232
3  239  238  233
3  239  234  233
3  240  239  234
3  240  235  234
3  247  246  241
3  247  242  241
3  248  247  242
3  248  243  242
3  249  248  243
3  249  244  243
3  250  249  244
3  250  245  244
3  252  251  246
3  252  247  246
3  253  252  247
3  253  248  247
3  254  253  248
3  254  249  248
3  255  254  249
3  255  250  249
3  257  256  251
3  257  252  251
3  258  257  252
3  258  253  252
3  259  258  253
3  259  254  253
3  260  259  254
3  260  255  254
3  262  261  256
3  262  257  256
3  263  262  257
3  263  258  257
3  264  263  258
3  264  259  258
3  265  264  259
3  265  260  259
3  272  271  266
3  272  267  266
3  273  272  267
3  273  268  267
3  274  273  268
3  274  269  268
3  274  270  269
3  276  275  271
3  276  272  271
3  277  276  272
3  277  273  272
3  277  274  273
3  279  278  275
3  279  276  275
3  279  277  276
3  280  279  278
3  287  286  281
3  287  282  281
3  288  287  282
3  288  283  282
3  289  288  283
3  289  284  283
3  289  285  284
3  291  290  286
3  291  287  286
3  292  291  287
3  292  288  287
3  292  289  288
3  294  293  290
3  294  291  290
3  294  292  291
3  295  294  293
3  302  301  296
3  302  297  296
3  303  302  297
3  303  298  297
3  304  303  298
3  304  299  298
3  305  304  299
3  305  300  299
3  307  306  301
3  307  302  301
3  308  307  302
3  308  303  302
3  309  308  303
3  309  304  303
3  310  309  304
3  310  305  304
3  312  311  306
3  312  307  306
3  313  312  307
3  313  308  307
3  314  313  308
3  314  309  308
3  315  314  309
3  315  310  309
3  317  316  311
3  317  312  311
3  318  317  312
3  318  313  312
3  319  318  313
3  319  314  313
3  320  319  314
3  320  315  314
3  327  326  321
3  327  322  321
3  328  327  322
3  328  323  322
3  329  328  323
3  329  324  323
3  330  329  324
3  330  325  324
3  332  331  326
3  332  327  326
3  333  332  327
3  333  328  327
3  334  333  328
3  334  329  328
3  335  334  329
3  335  330  329
3  337  336  331
3  337  332  331
3  338  337  332
3  338  333  332
3  339  338  333
3  339  334  333
3  340  339  334
3  340  335  334
3  342  341  336
3  342  337  336
3  343  342  337
3  343  338  337
3  344  343  338
3  344  339  338
3  345  344  339
3  345  340  339
3  352  351  346
3  352  347  346
3  353  352  347
3  353  348  347
3  354  353  348
3  354  349  348
3  354  350  349
3  356  355  351
3  356  352  351
3  357  356  352
3  357  353  352
3  357  354  353
3  359  358  355
3  359  356  355
3  359  357  356
3  360  359  358
3  363  362  361
3  365  364  362
3  365  363  362
3  366  365  363
3  368  367  364
3  368  365  364
3  369  368  365
3  369  366  365
3  370  369  366
3  372  371  367
3  372  368  367
3  373  372  368
3  373  369  368
3  374  373  369
3  374  370  369
3  375  374  370
3  382  381  376
3  382  377  376
3  383  382  377
3  383  378  377
3  384  383  378
3  384  379  378
3  385  384  379
3  385  380  379
3  387  386  381
3  387  382  381
3  388  387  382
3  388  383  382
3  389  388  383
3  389  384  383
3  390  389  384
3  390  385  384
3  392  391  386
3  392  387  386
3  393  392  387
3  393  388  387
3  394  393  388
3  394  389  388
3  395  394  389
3  395  390  389
3  397  396  391
3  397  392  391
3  398  397  392
3  398  393  392
3  399  398  393
3  399  394  393
3  400  399  394
3  400  395  394
3  403  402  401
3  405  404  402
3  405  403  402
3  406  405  403
3  408  407  404
3  408  405  404
3  409  408  405
3  409  406  405
3  410  409  406
3  412  411  407
3  412  408  407
3  413  412  408
3  413  409  408
3  414  413  409
3  414  410  409
3  415  414  410
3  422  421  416
3  422  417  416
3  423  422  417
3  423  418  417
3  424  423  418
3  424  419  418
3  425  424  419
3  425  420  419
3  427  426  421
3  427  422  421
3  428  427  422
3  428  423  422
3  429  428  423
3  429  424  423
3  430  429  424
3  430  425  424
3  432  431  426
3  432  427  426
3  433  432  427
3  433  428  427
3  434  433  428
3  434  429  428
3  435  434  429
3  435  430  429
3  437  436  431
3  437  432  431
3  438  437  432
3  438  433  432
3  439  438  433
3  439  434  433
3  440  439  434
3  440  435  434
3  447  446  441
3  447  442  441
3  448  447  442
3  448  443  442
3  449  448  443
3  449  444  443
3  450  449  444
3  450  445  444
3  452  451  446
3  452  447  446
3  453  452  447
3  453  448  447
3  454  453  448
3  454  449  448
3  455  454  449
3  455  450  449
3  457  456  451
3  457  452  451
3  458  457  452
3  458  453  452
3  459  458  453
3  459  454  453
3  460  459  454
3  460  455  454
3  462  461  456
3  462  457  456
3  463  462  457
3  463  458  457
3  464  463  458
3  464  459  458
3  465  464  459
3  465  460  459
3  472  471  466
3  472  467  466
3  473  472  467
3  473  468  467
3  474  473  468
3  474  469  468
3  474  470  469
3  476  475  471
3  476  472  471
3  477  476  472
3  477  473  472
3  477  474  473
3  479  478  475
3  479  476  475
3  479  477  476
3  480  479  478
3  487  486  481
3  487  482  481
3  488  487  482
3  488  483  482
3  489  488  483
3  489  484  483
3  490  489  484
3  490  485  484
3  492  491  486
3  492  487  486
3  493  492  487
3  493  488  487
3  494  493  488
3  494  489  488
3  495  494  489
3  495  490  489
3  497  496  491
3  497  492  491
3  498  497  492
3  498  493  492
3  499  498  493
3  499  494  493
3  500  499  494
3  500  495  494
3  502  501  496
3  502  497  496
3  503  502  497
3  503  498  497
3  504  503  498
3  504  499  498
3  505  504  499
3  505  500  499
3  512  511  506
3  512  507  506
3  513  512  507
3  513  508  507
3  514  513  508
3  514  509  508
3  514  510  509
3  516  515  511
3  516  512  511
3  517  516  512
3  517  513  512
3  517  514  513
3  519  518  515
3  519  516  515
3  519  517  516
3  520  519  518
